<svg width="100%" height="100%" viewBox="0 0 477 706" version="1.1" xmlns="http://www.w3.org/2000/svg" xmlns:xlink="http://www.w3.org/1999/xlink" xml:space="preserve" xmlns:serif="http://www.serif.com/" style="fill-rule:evenodd;clip-rule:evenodd;stroke-linejoin:round;stroke-miterlimit:2;">
    <g transform="matrix(1,0,0,1,-398.944,-146.96)">
        <g id="logo-logo" transform="matrix(3.28379,0,0,2.68277,637.338,499.565)">
            <g>
                <g transform="matrix(0.975635,0,0,0.960424,-70.9934,-126.711)">
                    <g>
                        <g>
                            <path d="M72.5,200C32.467,199.945 0.033,167.493 0,127.46L0,72.54C0,32.499 32.459,0.04 72.5,0.04C112.541,0.04 145,32.499 145,72.54L145,127.46C144.967,167.493 112.533,199.945 72.5,200Z" style="fill:rgb(52,50,50);fill-rule:nonzero;"/>
                        </g>
                    </g>
                </g>
                <g transform="matrix(0.975635,0,0,0.960424,-70.7336,-65.4847)">
                    <g>
                        <g>
                            <path d="M72.5,200C32.467,199.945 0.033,167.493 0,127.46L0,72.54C0,32.499 32.459,0.04 72.5,0.04C112.541,0.04 145,32.499 145,72.54L145,127.46C144.967,167.493 112.533,199.945 72.5,200Z" style="fill:rgb(52,50,50);fill-rule:nonzero;"/>
                        </g>
                    </g>
                </g>
                <g transform="matrix(0.0283726,0,0,-0.0283726,-72.5971,131.433)">
                    <path d="M2558.7,9264.8C1147.83,9264.8 0,8116.97 0,6706.1L0,2558.7C0,1147.83 1147.83,0 2558.7,0C3969.58,0 5117.41,1147.83 5117.41,2558.7L5117.41,6706.1C5117.41,8116.97 3969.58,9264.8 2558.7,9264.8ZM2744.59,8884.48C3492.4,8821.25 4134.19,8380.51 4477.7,7753.65L3365.09,6641.04L3365.09,6706.1C3365.09,7086.79 3099.96,7406.59 2744.59,7490.72L2744.59,8884.48ZM2372.82,8884.48L2372.82,7490.72C2017.44,7406.59 1752.19,7086.79 1752.19,6706.1L1752.19,6641.04L639.586,7753.65C983.223,8380.51 1625.01,8821.25 2372.82,8884.48ZM371.887,6706.1C371.887,6943.71 410.535,7172.27 480.852,7386.65L1752.19,6115.18L1752.19,5757.61L371.887,5757.61L371.887,6706.1ZM1234.78,819.723C710.758,1219.61 371.887,1850.15 371.887,2558.7L371.887,4286.44C861.789,4198.39 1234.78,3769.27 1234.78,3254.42L1234.78,819.723ZM2372.82,380.328C2100.23,403.316 1841.71,476.082 1606.54,590.301L1606.54,3254.42C1606.54,3974.72 1067.61,4571.13 371.887,4662.48L371.887,5385.72L1752.19,5385.72L1752.19,4437.23C1752.19,4056.53 2017.44,3736.86 2372.82,3652.6L2372.82,380.328ZM2124.08,4437.23L2124.08,6706.1C2124.08,6945.79 2319.01,7140.72 2558.7,7140.72C2798.39,7140.72 2993.33,6945.79 2993.33,6706.1L2993.33,4437.23C2993.33,4197.54 2798.39,4002.6 2558.7,4002.6C2319.01,4002.6 2124.08,4197.54 2124.08,4437.23ZM4745.52,2558.7C4745.52,1850.15 4406.53,1219.61 3882.63,819.723L3882.63,3254.42C3882.63,3769.27 4255.62,4198.39 4745.52,4286.44L4745.52,2558.7ZM4745.52,4662.48C4049.8,4571.13 3510.74,3974.72 3510.74,3254.42L3510.74,590.301C3275.7,476.082 3017.18,403.316 2744.59,380.328L2744.59,3652.6C3099.96,3736.86 3365.09,4056.53 3365.09,4437.23L3365.09,5385.72L4745.52,5385.72L4745.52,4662.48ZM4745.52,5757.61L3365.09,5757.61L3365.09,6115.18L4636.56,7386.65C4706.88,7172.27 4745.52,6943.71 4745.52,6706.1L4745.52,5757.61" style="fill:rgb(20,20,20);fill-rule:nonzero;"/>
                </g>
                <g transform="matrix(0.0283726,0,0,-0.0283726,-72.5971,131.433)">
                    <path d="M2993.33,6706.1L2993.33,4437.23C2993.33,4197.54 2798.39,4002.6 2558.7,4002.6C2319.01,4002.6 2124.08,4197.54 2124.08,4437.23L2124.08,6706.1C2124.08,6945.79 2319.01,7140.72 2558.7,7140.72C2798.39,7140.72 2993.33,6945.79 2993.33,6706.1" style="fill:rgb(255,192,5);fill-rule:nonzero;"/>
                </g>
                <g transform="matrix(0.0283726,0,0,-0.0283726,-72.5971,131.433)">
                    <path d="M1234.78,3254.42L1234.78,819.723C710.758,1219.61 371.887,1850.15 371.887,2558.7L371.887,4286.44C861.789,4198.39 1234.78,3769.27 1234.78,3254.42" style="fill:rgb(252,117,14);fill-rule:nonzero;"/>
                </g>
                <g transform="matrix(0.0283726,0,0,-0.0283726,-72.5971,131.433)">
                    <path d="M4745.52,4286.44L4745.52,2558.7C4745.52,1850.15 4406.53,1219.61 3882.63,819.723L3882.63,3254.42C3882.63,3769.27 4255.62,4198.39 4745.52,4286.44" style="fill:rgb(213,88,242);fill-rule:nonzero;"/>
                </g>
                <g transform="matrix(0.0283726,0,0,-0.0283726,-72.5971,131.433)">
                    <path d="M4745.52,5385.72L4745.52,4662.48C4049.8,4571.13 3510.74,3974.72 3510.74,3254.42L3510.74,590.301C3275.7,476.082 3017.18,403.316 2744.59,380.328L2744.59,3652.6C3099.96,3736.86 3365.09,4056.53 3365.09,4437.23L3365.09,5385.72L4745.52,5385.72" style="fill:rgb(129,97,254);fill-rule:nonzero;"/>
                </g>
                <g transform="matrix(0.0283726,0,0,-0.0283726,-72.5971,131.433)">
                    <path d="M2372.82,3652.6L2372.82,380.328C2100.23,403.316 1841.71,476.082 1606.54,590.301L1606.54,3254.42C1606.54,3974.72 1067.61,4571.13 371.887,4662.48L371.887,5385.72L1752.19,5385.72L1752.19,4437.23C1752.19,4056.53 2017.44,3736.86 2372.82,3652.6" style="fill:rgb(149,2,214);fill-rule:nonzero;"/>
                </g>
                <g transform="matrix(0.0283726,0,0,-0.0283726,-72.5971,131.433)">
                    <path d="M1752.19,6115.18L1752.19,5757.61L371.887,5757.61L371.887,6706.1C371.887,6943.71 410.535,7172.27 480.852,7386.65L1752.19,6115.18" style="fill:rgb(129,97,254);fill-rule:nonzero;"/>
                </g>
                <g transform="matrix(0.0283726,0,0,-0.0283726,-72.5971,131.433)">
                    <path d="M4745.52,6706.1L4745.52,5757.61L3365.09,5757.61L3365.09,6115.18L4636.56,7386.65C4706.88,7172.27 4745.52,6943.71 4745.52,6706.1" style="fill:rgb(252,117,14);fill-rule:nonzero;"/>
                </g>
                <g transform="matrix(0.0283726,0,0,-0.0283726,-72.5971,131.433)">
                    <path d="M3365.09,6641.04L3365.09,6706.1C3365.09,7086.79 3099.96,7406.59 2744.59,7490.72L2744.59,8884.48C3492.4,8821.25 4134.19,8380.51 4477.7,7753.65L3365.09,6641.04" style="fill:rgb(149,2,214);fill-rule:nonzero;"/>
                </g>
                <g transform="matrix(0.0283726,0,0,-0.0283726,-72.5971,131.433)">
                    <path d="M2372.82,8884.48L2372.82,7490.72C2017.44,7406.59 1752.19,7086.79 1752.19,6706.1L1752.19,6641.04L639.586,7753.65C983.223,8380.51 1625.01,8821.25 2372.82,8884.48" style="fill:rgb(213,88,242);fill-rule:nonzero;"/>
                </g>
            </g>
        </g>
        <g id="tagline-c916e248-b80f-4c69-9976-8082773fa661-logo">
        </g>
        <g id="tagline-1cab1c46-bf00-4a23-9a37-fda869b18d3f-logo">
        </g>
    </g>
</svg>
